<svg xmlns="http://www.w3.org/2000/svg" viewBox="0 0 1200 900" role="img" aria-label="MV switchgear lineup">
<defs>
<pattern id="g" width="30" height="30" patternUnits="userSpaceOnUse"><path d="M30 0H0V30" fill="none" stroke="#1B2A4A" stroke-width="1"/></pattern>
<pattern id="G" width="150" height="150" patternUnits="userSpaceOnUse"><path d="M150 0H0V150" fill="none" stroke="#22365F" stroke-width="1.2"/></pattern>
<radialGradient id="l" cx="70%" cy="20%" r="90%"><stop offset="0" stop-color="#16285A"/><stop offset=".55" stop-color="#070B18"/><stop offset="1" stop-color="#030508"/></radialGradient>
</defs>
<rect width="1200" height="900" fill="url(#l)"/>
<rect width="1200" height="900" fill="url(#g)" opacity=".55"/>
<rect width="1200" height="900" fill="url(#G)" opacity=".7"/>
<g fill="none" stroke="#7FA2FF" stroke-width="2.2" stroke-linecap="round" stroke-linejoin="round">
<line x1="60" y1="700" x2="1140" y2="700" stroke="#3A5594"/><line x1="80" y1="700" x2="62" y2="718" stroke="#2C4170" stroke-width="1.4"/><line x1="108" y1="700" x2="90" y2="718" stroke="#2C4170" stroke-width="1.4"/><line x1="136" y1="700" x2="118" y2="718" stroke="#2C4170" stroke-width="1.4"/><line x1="164" y1="700" x2="146" y2="718" stroke="#2C4170" stroke-width="1.4"/><line x1="192" y1="700" x2="174" y2="718" stroke="#2C4170" stroke-width="1.4"/><line x1="220" y1="700" x2="202" y2="718" stroke="#2C4170" stroke-width="1.4"/><line x1="248" y1="700" x2="230" y2="718" stroke="#2C4170" stroke-width="1.4"/><line x1="276" y1="700" x2="258" y2="718" stroke="#2C4170" stroke-width="1.4"/><line x1="304" y1="700" x2="286" y2="718" stroke="#2C4170" stroke-width="1.4"/><line x1="332" y1="700" x2="314" y2="718" stroke="#2C4170" stroke-width="1.4"/><line x1="360" y1="700" x2="342" y2="718" stroke="#2C4170" stroke-width="1.4"/><line x1="388" y1="700" x2="370" y2="718" stroke="#2C4170" stroke-width="1.4"/><line x1="416" y1="700" x2="398" y2="718" stroke="#2C4170" stroke-width="1.4"/><line x1="444" y1="700" x2="426" y2="718" stroke="#2C4170" stroke-width="1.4"/><line x1="472" y1="700" x2="454" y2="718" stroke="#2C4170" stroke-width="1.4"/><line x1="500" y1="700" x2="482" y2="718" stroke="#2C4170" stroke-width="1.4"/><line x1="528" y1="700" x2="510" y2="718" stroke="#2C4170" stroke-width="1.4"/><line x1="556" y1="700" x2="538" y2="718" stroke="#2C4170" stroke-width="1.4"/><line x1="584" y1="700" x2="566" y2="718" stroke="#2C4170" stroke-width="1.4"/><line x1="612" y1="700" x2="594" y2="718" stroke="#2C4170" stroke-width="1.4"/><line x1="640" y1="700" x2="622" y2="718" stroke="#2C4170" stroke-width="1.4"/><line x1="668" y1="700" x2="650" y2="718" stroke="#2C4170" stroke-width="1.4"/><line x1="696" y1="700" x2="678" y2="718" stroke="#2C4170" stroke-width="1.4"/><line x1="724" y1="700" x2="706" y2="718" stroke="#2C4170" stroke-width="1.4"/><line x1="752" y1="700" x2="734" y2="718" stroke="#2C4170" stroke-width="1.4"/><line x1="780" y1="700" x2="762" y2="718" stroke="#2C4170" stroke-width="1.4"/><line x1="808" y1="700" x2="790" y2="718" stroke="#2C4170" stroke-width="1.4"/><line x1="836" y1="700" x2="818" y2="718" stroke="#2C4170" stroke-width="1.4"/><line x1="864" y1="700" x2="846" y2="718" stroke="#2C4170" stroke-width="1.4"/><line x1="892" y1="700" x2="874" y2="718" stroke="#2C4170" stroke-width="1.4"/><line x1="920" y1="700" x2="902" y2="718" stroke="#2C4170" stroke-width="1.4"/><line x1="948" y1="700" x2="930" y2="718" stroke="#2C4170" stroke-width="1.4"/><line x1="976" y1="700" x2="958" y2="718" stroke="#2C4170" stroke-width="1.4"/><line x1="1004" y1="700" x2="986" y2="718" stroke="#2C4170" stroke-width="1.4"/><line x1="1032" y1="700" x2="1014" y2="718" stroke="#2C4170" stroke-width="1.4"/><line x1="1060" y1="700" x2="1042" y2="718" stroke="#2C4170" stroke-width="1.4"/><line x1="1088" y1="700" x2="1070" y2="718" stroke="#2C4170" stroke-width="1.4"/><line x1="1116" y1="700" x2="1098" y2="718" stroke="#2C4170" stroke-width="1.4"/><rect x="140" y="260" width="140" height="440"/><rect x="160" y="290" width="100" height="70"/><circle cx="186" cy="400" r="14"/><circle cx="234" cy="400" r="14"/><line x1="160" y1="450" x2="260" y2="450" stroke="#3E5CA8"/><line x1="160" y1="480" x2="260" y2="480" stroke="#3E5CA8"/><rect x="196" y="560" width="28" height="60"/><rect x="290" y="260" width="140" height="440"/><rect x="310" y="290" width="100" height="70"/><circle cx="336" cy="400" r="14"/><circle cx="384" cy="400" r="14"/><line x1="310" y1="450" x2="410" y2="450" stroke="#3E5CA8"/><line x1="310" y1="480" x2="410" y2="480" stroke="#3E5CA8"/><rect x="346" y="560" width="28" height="60"/><rect x="440" y="260" width="140" height="440"/><rect x="460" y="290" width="100" height="70"/><circle cx="486" cy="400" r="14"/><circle cx="534" cy="400" r="14"/><line x1="460" y1="450" x2="560" y2="450" stroke="#3E5CA8"/><line x1="460" y1="480" x2="560" y2="480" stroke="#3E5CA8"/><rect x="496" y="560" width="28" height="60"/><rect x="590" y="260" width="140" height="440"/><rect x="610" y="290" width="100" height="70"/><circle cx="636" cy="400" r="14"/><circle cx="684" cy="400" r="14"/><line x1="610" y1="450" x2="710" y2="450" stroke="#3E5CA8"/><line x1="610" y1="480" x2="710" y2="480" stroke="#3E5CA8"/><rect x="646" y="560" width="28" height="60"/><rect x="740" y="260" width="140" height="440"/><rect x="760" y="290" width="100" height="70"/><circle cx="786" cy="400" r="14"/><circle cx="834" cy="400" r="14"/><line x1="760" y1="450" x2="860" y2="450" stroke="#3E5CA8"/><line x1="760" y1="480" x2="860" y2="480" stroke="#3E5CA8"/><rect x="796" y="560" width="28" height="60"/><path d="M140 230 H880" stroke-width="3"/><path d="M210 230 V260"/><path d="M360 230 V260"/><path d="M510 230 V260"/><path d="M660 230 V260"/><path d="M810 230 V260"/><path d="M960 700 V320 M940 340 H980 M930 380 H990 M920 420 H1000" /><path d="M960 320 L1010 250 L1060 320 M1010 250 V700"/><g stroke="#4A6BB8" stroke-width="1.4"><line x1="140" y1="200" x2="880" y2="200"/><line x1="140" y1="190" x2="140" y2="210"/><line x1="880" y1="190" x2="880" y2="210"/></g><text x="510.0" y="190" fill="#6E86C4" stroke="none" font-family="Manrope, Arial" font-size="16" text-anchor="middle">MV switchgear lineup 7.5 m</text>
</g>
<g font-family="Manrope, Arial, sans-serif" fill="#7F8BA3" font-size="18">
<rect x="880" y="800" width="290" height="70" fill="#050913" stroke="#2C4170"/>
<line x1="880" y1="830" x2="1170" y2="830" stroke="#2C4170"/>
<text x="896" y="821" font-size="14" letter-spacing="1">ORITEC</text>
<text x="1154" y="821" font-size="14" text-anchor="end">DWG-EL-415</text>
<text x="896" y="857" fill="#C9D4EC">MV switchgear lineup</text>
</g>
</svg>
