<svg xmlns="http://www.w3.org/2000/svg" viewBox="0 0 1200 900" role="img" aria-label="Stage II vapor recovery">
<defs>
<pattern id="g" width="30" height="30" patternUnits="userSpaceOnUse"><path d="M30 0H0V30" fill="none" stroke="#1B2A4A" stroke-width="1"/></pattern>
<pattern id="G" width="150" height="150" patternUnits="userSpaceOnUse"><path d="M150 0H0V150" fill="none" stroke="#22365F" stroke-width="1.2"/></pattern>
<radialGradient id="l" cx="70%" cy="20%" r="90%"><stop offset="0" stop-color="#16285A"/><stop offset=".55" stop-color="#070B18"/><stop offset="1" stop-color="#030508"/></radialGradient>
</defs>
<rect width="1200" height="900" fill="url(#l)"/>
<rect width="1200" height="900" fill="url(#g)" opacity=".55"/>
<rect width="1200" height="900" fill="url(#G)" opacity=".7"/>
<g fill="none" stroke="#7FA2FF" stroke-width="2.2" stroke-linecap="round" stroke-linejoin="round">
<line x1="60" y1="700" x2="1140" y2="700" stroke="#3A5594"/><line x1="80" y1="700" x2="62" y2="718" stroke="#2C4170" stroke-width="1.4"/><line x1="108" y1="700" x2="90" y2="718" stroke="#2C4170" stroke-width="1.4"/><line x1="136" y1="700" x2="118" y2="718" stroke="#2C4170" stroke-width="1.4"/><line x1="164" y1="700" x2="146" y2="718" stroke="#2C4170" stroke-width="1.4"/><line x1="192" y1="700" x2="174" y2="718" stroke="#2C4170" stroke-width="1.4"/><line x1="220" y1="700" x2="202" y2="718" stroke="#2C4170" stroke-width="1.4"/><line x1="248" y1="700" x2="230" y2="718" stroke="#2C4170" stroke-width="1.4"/><line x1="276" y1="700" x2="258" y2="718" stroke="#2C4170" stroke-width="1.4"/><line x1="304" y1="700" x2="286" y2="718" stroke="#2C4170" stroke-width="1.4"/><line x1="332" y1="700" x2="314" y2="718" stroke="#2C4170" stroke-width="1.4"/><line x1="360" y1="700" x2="342" y2="718" stroke="#2C4170" stroke-width="1.4"/><line x1="388" y1="700" x2="370" y2="718" stroke="#2C4170" stroke-width="1.4"/><line x1="416" y1="700" x2="398" y2="718" stroke="#2C4170" stroke-width="1.4"/><line x1="444" y1="700" x2="426" y2="718" stroke="#2C4170" stroke-width="1.4"/><line x1="472" y1="700" x2="454" y2="718" stroke="#2C4170" stroke-width="1.4"/><line x1="500" y1="700" x2="482" y2="718" stroke="#2C4170" stroke-width="1.4"/><line x1="528" y1="700" x2="510" y2="718" stroke="#2C4170" stroke-width="1.4"/><line x1="556" y1="700" x2="538" y2="718" stroke="#2C4170" stroke-width="1.4"/><line x1="584" y1="700" x2="566" y2="718" stroke="#2C4170" stroke-width="1.4"/><line x1="612" y1="700" x2="594" y2="718" stroke="#2C4170" stroke-width="1.4"/><line x1="640" y1="700" x2="622" y2="718" stroke="#2C4170" stroke-width="1.4"/><line x1="668" y1="700" x2="650" y2="718" stroke="#2C4170" stroke-width="1.4"/><line x1="696" y1="700" x2="678" y2="718" stroke="#2C4170" stroke-width="1.4"/><line x1="724" y1="700" x2="706" y2="718" stroke="#2C4170" stroke-width="1.4"/><line x1="752" y1="700" x2="734" y2="718" stroke="#2C4170" stroke-width="1.4"/><line x1="780" y1="700" x2="762" y2="718" stroke="#2C4170" stroke-width="1.4"/><line x1="808" y1="700" x2="790" y2="718" stroke="#2C4170" stroke-width="1.4"/><line x1="836" y1="700" x2="818" y2="718" stroke="#2C4170" stroke-width="1.4"/><line x1="864" y1="700" x2="846" y2="718" stroke="#2C4170" stroke-width="1.4"/><line x1="892" y1="700" x2="874" y2="718" stroke="#2C4170" stroke-width="1.4"/><line x1="920" y1="700" x2="902" y2="718" stroke="#2C4170" stroke-width="1.4"/><line x1="948" y1="700" x2="930" y2="718" stroke="#2C4170" stroke-width="1.4"/><line x1="976" y1="700" x2="958" y2="718" stroke="#2C4170" stroke-width="1.4"/><line x1="1004" y1="700" x2="986" y2="718" stroke="#2C4170" stroke-width="1.4"/><line x1="1032" y1="700" x2="1014" y2="718" stroke="#2C4170" stroke-width="1.4"/><line x1="1060" y1="700" x2="1042" y2="718" stroke="#2C4170" stroke-width="1.4"/><line x1="1088" y1="700" x2="1070" y2="718" stroke="#2C4170" stroke-width="1.4"/><line x1="1116" y1="700" x2="1098" y2="718" stroke="#2C4170" stroke-width="1.4"/><rect x="250" y="400" width="120" height="300" rx="8"/><rect x="272" y="430" width="76" height="56"/><path d="M370 520 q70 0 80 80 v40"/><path d="M440 640 l24 -8 l8 24" /><path d="M310 700 V780 H760 V800" stroke-dasharray="14 8"/><path d="M330 700 V760 H740 V800"/><ellipse cx="830" cy="840" rx="210" ry="36" stroke="#3E5CA8"/><path d="M620 840 V800 H1040 V840" stroke="#3E5CA8"/><path d="M960 800 V420 h60" /><path d="M1020 400 h40 v40 h-40 z"/><path d="M1040 400 v-60" stroke="#3E5CA8"/><g stroke="#9DB8FF" stroke-width="1.6" stroke-dasharray="4 10"><path d="M450 600 q20 -40 0 -80 q-20 -40 0 -80"/><path d="M490 600 q20 -40 0 -80 q-20 -40 0 -80"/><path d="M530 600 q20 -40 0 -80 q-20 -40 0 -80"/><path d="M570 600 q20 -40 0 -80 q-20 -40 0 -80"/></g><text x="500" y="755" fill="#6E86C4" stroke="none" font-family="Manrope, Arial" font-size="16">Vapor return line</text><text x="500" y="735" fill="#6E86C4" stroke="none" font-family="Manrope, Arial" font-size="16">Product line</text><text x="1070" y="380" fill="#6E86C4" stroke="none" font-family="Manrope, Arial" font-size="16">P/V vent</text>
</g>
<g font-family="Manrope, Arial, sans-serif" fill="#7F8BA3" font-size="18">
<rect x="880" y="800" width="290" height="70" fill="#050913" stroke="#2C4170"/>
<line x1="880" y1="830" x2="1170" y2="830" stroke="#2C4170"/>
<text x="896" y="821" font-size="14" letter-spacing="1">ORITEC</text>
<text x="1154" y="821" font-size="14" text-anchor="end">DWG-VR-310</text>
<text x="896" y="857" fill="#C9D4EC">Stage II vapor recovery</text>
</g>
</svg>
